<svg id="visual" viewBox="0 0 9000 6000" width="9000" height="6000" xmlns="http://www.w3.org/2000/svg" xmlns:xlink="http://www.w3.org/1999/xlink" version="1.1"><rect x="0" y="0" width="9000" height="6000" fill="#000000"></rect><g fill="#db0000"><path d="M0 -892.9L200.5 -275.9L849.2 -275.9L324.4 105.4L524.8 722.3L0 341L-524.8 722.3L-324.4 105.4L-849.2 -275.9L-200.5 -275.9Z" transform="translate(7200 153)"></path><path d="M0 -56.6L12.7 -17.5L53.9 -17.5L20.6 6.7L33.3 45.8L0 21.6L-33.3 45.8L-20.6 6.7L-53.9 -17.5L-12.7 -17.5Z" transform="translate(5872 2281)"></path><path d="M0 -709.8L159.4 -219.3L675 -219.3L257.8 83.8L417.2 574.2L0 271.1L-417.2 574.2L-257.8 83.8L-675 -219.3L-159.4 -219.3Z" transform="translate(7926 5376)"></path><path d="M0 -838.1L188.2 -259L797.1 -259L304.5 98.9L492.6 678.1L0 320.1L-492.6 678.1L-304.5 98.9L-797.1 -259L-188.2 -259Z" transform="translate(4257 4663)"></path><path d="M0 -852.3L191.3 -263.4L810.6 -263.4L309.6 100.6L501 689.5L0 325.5L-501 689.5L-309.6 100.6L-810.6 -263.4L-191.3 -263.4Z" transform="translate(1008 1151)"></path><path d="M0 -70.8L15.9 -21.9L67.3 -21.9L25.7 8.4L41.6 57.3L0 27L-41.6 57.3L-25.7 8.4L-67.3 -21.9L-15.9 -21.9Z" transform="translate(160 5883)"></path><path d="M0 -348.3L78.2 -107.6L331.2 -107.6L126.5 41.1L204.7 281.8L0 133L-204.7 281.8L-126.5 41.1L-331.2 -107.6L-78.2 -107.6Z" transform="translate(2887 2249)"></path><path d="M0 -514.4L115.5 -159L489.2 -159L186.9 60.7L302.3 416.1L0 196.5L-302.3 416.1L-186.9 60.7L-489.2 -159L-115.5 -159Z" transform="translate(1238 3300)"></path><path d="M0 -345.4L77.6 -106.7L328.5 -106.7L125.5 40.8L203 279.5L0 131.9L-203 279.5L-125.5 40.8L-328.5 -106.7L-77.6 -106.7Z" transform="translate(2032 5546)"></path><path d="M0 -179.3L40.3 -55.4L170.6 -55.4L65.1 21.2L105.4 145.1L0 68.5L-105.4 145.1L-65.1 21.2L-170.6 -55.4L-40.3 -55.4Z" transform="translate(8927 2447)"></path><path d="M0 -572L128.4 -176.7L544 -176.7L207.8 67.5L336.2 462.7L0 218.5L-336.2 462.7L-207.8 67.5L-544 -176.7L-128.4 -176.7Z" transform="translate(4242 911)"></path><path d="M0 -836.2L187.7 -258.4L795.3 -258.4L303.8 98.7L491.5 676.5L0 319.4L-491.5 676.5L-303.8 98.7L-795.3 -258.4L-187.7 -258.4Z" transform="translate(5815 5813)"></path></g></svg>