<svg id="visual" viewBox="0 0 9000 6000" width="9000" height="6000" xmlns="http://www.w3.org/2000/svg" xmlns:xlink="http://www.w3.org/1999/xlink" version="1.1"><g stroke-width="1" stroke-linejoin="bevel"><path d="M4264.3 2974L4727.7 2907L4322.3 2482Z" fill="#481f5e" stroke="#481f5e"></path><path d="M4727.7 2907L4762.7 2486L4322.3 2482Z" fill="#a60054" stroke="#a60054"></path><path d="M4762.7 2486L4733.7 2075L4322.3 2482Z" fill="#101e43" stroke="#101e43"></path><path d="M4733.7 2075L4281.3 2003L4322.3 2482Z" fill="#101e43" stroke="#101e43"></path><path d="M3654.9 2448L3722.9 3086L4264.3 2974Z" fill="#00101c" stroke="#00101c"></path><path d="M4264.3 2974L4680.7 3495L4727.7 2907Z" fill="#db0000" stroke="#db0000"></path><path d="M4727.7 2907L5306.1 2967L4762.7 2486Z" fill="#031930" stroke="#031930"></path><path d="M3654.9 2448L4264.3 2974L4322.3 2482Z" fill="#a60054" stroke="#a60054"></path><path d="M4264.3 2974L4253.3 3570L4680.7 3495Z" fill="#bf0042" stroke="#bf0042"></path><path d="M3722.9 3086L4253.3 3570L4264.3 2974Z" fill="#481f5e" stroke="#481f5e"></path><path d="M4680.7 3495L5306.1 2967L4727.7 2907Z" fill="#bf0042" stroke="#bf0042"></path><path d="M4762.7 2486L5372.1 2460L4733.7 2075Z" fill="#101e43" stroke="#101e43"></path><path d="M3740.9 1982L3654.9 2448L4322.3 2482Z" fill="#88005f" stroke="#88005f"></path><path d="M5306.1 2967L5372.1 2460L4762.7 2486Z" fill="#681562" stroke="#681562"></path><path d="M4281.3 2003L3740.9 1982L4322.3 2482Z" fill="#a60054" stroke="#a60054"></path><path d="M3221.5 3430L3670.9 3511L3722.9 3086Z" fill="#481f5e" stroke="#481f5e"></path><path d="M3722.9 3086L3670.9 3511L4253.3 3570Z" fill="#bf0042" stroke="#bf0042"></path><path d="M4858.7 4063L5254.1 3578L4680.7 3495Z" fill="#88005f" stroke="#88005f"></path><path d="M4680.7 3495L5254.1 3578L5306.1 2967Z" fill="#2a2153" stroke="#2a2153"></path><path d="M5306.1 2967L5791.5 2528L5372.1 2460Z" fill="#88005f" stroke="#88005f"></path><path d="M5372.1 2460L5354.1 2022L4733.7 2075Z" fill="#101e43" stroke="#101e43"></path><path d="M4733.7 2075L4712.7 1457L4281.3 2003Z" fill="#a60054" stroke="#a60054"></path><path d="M4281.3 2003L4201.3 1460L3740.9 1982Z" fill="#681562" stroke="#681562"></path><path d="M5291.1 1483L4712.7 1457L4733.7 2075Z" fill="#a60054" stroke="#a60054"></path><path d="M4712.7 1457L4201.3 1460L4281.3 2003Z" fill="#d1002a" stroke="#d1002a"></path><path d="M3619.9 4039L4265.3 4050L4253.3 3570Z" fill="#031930" stroke="#031930"></path><path d="M4253.3 3570L4265.3 4050L4680.7 3495Z" fill="#031930" stroke="#031930"></path><path d="M5756.5 3456L5769.5 3074L5306.1 2967Z" fill="#88005f" stroke="#88005f"></path><path d="M5372.1 2460L5791.5 2528L5354.1 2022Z" fill="#031930" stroke="#031930"></path><path d="M5769.5 3074L5791.5 2528L5306.1 2967Z" fill="#a60054" stroke="#a60054"></path><path d="M3159.5 1993L3125.5 2478L3654.9 2448Z" fill="#db0000" stroke="#db0000"></path><path d="M3654.9 2448L3098.5 3003L3722.9 3086Z" fill="#db0000" stroke="#db0000"></path><path d="M3159.5 1993L3654.9 2448L3740.9 1982Z" fill="#db0000" stroke="#db0000"></path><path d="M4265.3 4050L4858.7 4063L4680.7 3495Z" fill="#00101c" stroke="#00101c"></path><path d="M5254.1 3578L5756.5 3456L5306.1 2967Z" fill="#bf0042" stroke="#bf0042"></path><path d="M3125.5 2478L3098.5 3003L3654.9 2448Z" fill="#db0000" stroke="#db0000"></path><path d="M3670.9 3511L3619.9 4039L4253.3 3570Z" fill="#db0000" stroke="#db0000"></path><path d="M3098.5 3003L3221.5 3430L3722.9 3086Z" fill="#681562" stroke="#681562"></path><path d="M5365.1 4007L5756.5 3456L5254.1 3578Z" fill="#481f5e" stroke="#481f5e"></path><path d="M6266.9 2410L5895.5 1965L5791.5 2528Z" fill="#a60054" stroke="#a60054"></path><path d="M4251.3 1027L3729.9 1442L4201.3 1460Z" fill="#481f5e" stroke="#481f5e"></path><path d="M4201.3 1460L3729.9 1442L3740.9 1982Z" fill="#481f5e" stroke="#481f5e"></path><path d="M5915.5 1558L5291.1 1483L5354.1 2022Z" fill="#db0000" stroke="#db0000"></path><path d="M5354.1 2022L5291.1 1483L4733.7 2075Z" fill="#2a2153" stroke="#2a2153"></path><path d="M3239.5 1455L3159.5 1993L3740.9 1982Z" fill="#db0000" stroke="#db0000"></path><path d="M3178.5 3989L3619.9 4039L3670.9 3511Z" fill="#681562" stroke="#681562"></path><path d="M4265.3 4050L4733.7 4552L4858.7 4063Z" fill="#00101c" stroke="#00101c"></path><path d="M4858.7 4063L5365.1 4007L5254.1 3578Z" fill="#2a2153" stroke="#2a2153"></path><path d="M6266.9 2410L5791.5 2528L6304.9 3008Z" fill="#00101c" stroke="#00101c"></path><path d="M5791.5 2528L5895.5 1965L5354.1 2022Z" fill="#481f5e" stroke="#481f5e"></path><path d="M5208.1 1020L4741.7 1076L4712.7 1457Z" fill="#101e43" stroke="#101e43"></path><path d="M4712.7 1457L4251.3 1027L4201.3 1460Z" fill="#481f5e" stroke="#481f5e"></path><path d="M4741.7 1076L4251.3 1027L4712.7 1457Z" fill="#00101c" stroke="#00101c"></path><path d="M3616.9 954L3239.5 1455L3729.9 1442Z" fill="#681562" stroke="#681562"></path><path d="M3729.9 1442L3239.5 1455L3740.9 1982Z" fill="#bf0042" stroke="#bf0042"></path><path d="M2692.1 3501L3178.5 3989L3221.5 3430Z" fill="#031930" stroke="#031930"></path><path d="M3221.5 3430L3178.5 3989L3670.9 3511Z" fill="#031930" stroke="#031930"></path><path d="M3740.9 4524L4265.3 4050L3619.9 4039Z" fill="#db0000" stroke="#db0000"></path><path d="M3740.9 4524L4238.3 4540L4265.3 4050Z" fill="#db0000" stroke="#db0000"></path><path d="M4858.7 4063L5322.1 4432L5365.1 4007Z" fill="#d1002a" stroke="#d1002a"></path><path d="M4238.3 4540L4733.7 4552L4265.3 4050Z" fill="#d1002a" stroke="#d1002a"></path><path d="M6304.9 3008L5791.5 2528L5769.5 3074Z" fill="#a60054" stroke="#a60054"></path><path d="M5775.5 4404L5767.5 4049L5365.1 4007Z" fill="#a60054" stroke="#a60054"></path><path d="M5365.1 4007L5767.5 4049L5756.5 3456Z" fill="#681562" stroke="#681562"></path><path d="M6255.9 3452L6304.9 3008L5769.5 3074Z" fill="#101e43" stroke="#101e43"></path><path d="M2670.1 1956L2636.1 2496L3125.5 2478Z" fill="#031930" stroke="#031930"></path><path d="M3125.5 2478L2636.1 2496L3098.5 3003Z" fill="#d1002a" stroke="#d1002a"></path><path d="M3098.5 3003L2692.1 3501L3221.5 3430Z" fill="#db0000" stroke="#db0000"></path><path d="M2670.1 1956L3125.5 2478L3159.5 1993Z" fill="#2a2153" stroke="#2a2153"></path><path d="M6255.9 3452L5769.5 3074L5756.5 3456Z" fill="#681562" stroke="#681562"></path><path d="M6393.9 2031L5915.5 1558L5895.5 1965Z" fill="#bf0042" stroke="#bf0042"></path><path d="M5895.5 1965L5915.5 1558L5354.1 2022Z" fill="#db0000" stroke="#db0000"></path><path d="M5291.1 1483L5208.1 1020L4712.7 1457Z" fill="#481f5e" stroke="#481f5e"></path><path d="M5751.5 960L5208.1 1020L5291.1 1483Z" fill="#88005f" stroke="#88005f"></path><path d="M4741.7 1076L4315.3 548L4251.3 1027Z" fill="#681562" stroke="#681562"></path><path d="M4733.7 4552L5322.1 4432L4858.7 4063Z" fill="#2a2153" stroke="#2a2153"></path><path d="M2636.1 2496L2567.1 2906L3098.5 3003Z" fill="#2a2153" stroke="#2a2153"></path><path d="M3272.5 4473L3740.9 4524L3619.9 4039Z" fill="#031930" stroke="#031930"></path><path d="M5767.5 4049L6255.9 3452L5756.5 3456Z" fill="#00101c" stroke="#00101c"></path><path d="M2567.1 2906L2692.1 3501L3098.5 3003Z" fill="#681562" stroke="#681562"></path><path d="M3239.5 1455L2670.1 1956L3159.5 1993Z" fill="#2a2153" stroke="#2a2153"></path><path d="M2636.1 2496L2163.6 2560L2567.1 2906Z" fill="#d1002a" stroke="#d1002a"></path><path d="M4251.3 1027L3616.9 954L3729.9 1442Z" fill="#bf0042" stroke="#bf0042"></path><path d="M3239.5 1455L2591.1 1501L2670.1 1956Z" fill="#2a2153" stroke="#2a2153"></path><path d="M3752.9 571L3616.9 954L4251.3 1027Z" fill="#88005f" stroke="#88005f"></path><path d="M6266.9 2410L6393.9 2031L5895.5 1965Z" fill="#00101c" stroke="#00101c"></path><path d="M6960.4 2596L6393.9 2031L6266.9 2410Z" fill="#00101c" stroke="#00101c"></path><path d="M3178.5 3989L3272.5 4473L3619.9 4039Z" fill="#2a2153" stroke="#2a2153"></path><path d="M2621.1 4562L3272.5 4473L3178.5 3989Z" fill="#00101c" stroke="#00101c"></path><path d="M5322.1 4432L5775.5 4404L5365.1 4007Z" fill="#00101c" stroke="#00101c"></path><path d="M5767.5 4049L6375.9 4041L6255.9 3452Z" fill="#031930" stroke="#031930"></path><path d="M5848.5 4999L5775.5 4404L5322.1 4432Z" fill="#d1002a" stroke="#d1002a"></path><path d="M2126.6 3509L2690.1 3948L2692.1 3501Z" fill="#bf0042" stroke="#bf0042"></path><path d="M2692.1 3501L2690.1 3948L3178.5 3989Z" fill="#bf0042" stroke="#bf0042"></path><path d="M3616.9 954L3131.5 1031L3239.5 1455Z" fill="#88005f" stroke="#88005f"></path><path d="M5915.5 1558L5751.5 960L5291.1 1483Z" fill="#481f5e" stroke="#481f5e"></path><path d="M4697.7 459L4315.3 548L4741.7 1076Z" fill="#2a2153" stroke="#2a2153"></path><path d="M6410.9 1006L5751.5 960L5915.5 1558Z" fill="#88005f" stroke="#88005f"></path><path d="M4697.7 459L4741.7 1076L5208.1 1020Z" fill="#88005f" stroke="#88005f"></path><path d="M3616.9 954L3155.5 523L3131.5 1031Z" fill="#031930" stroke="#031930"></path><path d="M3131.5 1031L2591.1 1501L3239.5 1455Z" fill="#2a2153" stroke="#2a2153"></path><path d="M2117.6 2006L2163.6 2560L2636.1 2496Z" fill="#031930" stroke="#031930"></path><path d="M4315.3 548L3752.9 571L4251.3 1027Z" fill="#db0000" stroke="#db0000"></path><path d="M6393.9 2031L6425.9 1546L5915.5 1558Z" fill="#bf0042" stroke="#bf0042"></path><path d="M3095.5 5091L3688.9 4910L3272.5 4473Z" fill="#2a2153" stroke="#2a2153"></path><path d="M3272.5 4473L3688.9 4910L3740.9 4524Z" fill="#031930" stroke="#031930"></path><path d="M3740.9 4524L3688.9 4910L4238.3 4540Z" fill="#88005f" stroke="#88005f"></path><path d="M4331.3 5092L4828.7 5019L4733.7 4552Z" fill="#bf0042" stroke="#bf0042"></path><path d="M4733.7 4552L4828.7 5019L5322.1 4432Z" fill="#db0000" stroke="#db0000"></path><path d="M4331.3 5092L4733.7 4552L4238.3 4540Z" fill="#481f5e" stroke="#481f5e"></path><path d="M5342.1 436L4697.7 459L5208.1 1020Z" fill="#2a2153" stroke="#2a2153"></path><path d="M4315.3 548L4299.3 0L3752.9 571Z" fill="#681562" stroke="#681562"></path><path d="M5775.5 4404L6375.9 4041L5767.5 4049Z" fill="#a60054" stroke="#a60054"></path><path d="M6255.9 3452L6815.4 3495L6304.9 3008Z" fill="#481f5e" stroke="#481f5e"></path><path d="M6304.9 3008L6960.4 2596L6266.9 2410Z" fill="#681562" stroke="#681562"></path><path d="M6393.9 2031L6840.4 1950L6425.9 1546Z" fill="#481f5e" stroke="#481f5e"></path><path d="M6327.9 4555L6375.9 4041L5775.5 4404Z" fill="#00101c" stroke="#00101c"></path><path d="M2117.6 2006L2636.1 2496L2670.1 1956Z" fill="#00101c" stroke="#00101c"></path><path d="M2567.1 2906L2126.6 3509L2692.1 3501Z" fill="#481f5e" stroke="#481f5e"></path><path d="M3688.9 4910L4331.3 5092L4238.3 4540Z" fill="#2a2153" stroke="#2a2153"></path><path d="M2163.6 2560L2104.6 2910L2567.1 2906Z" fill="#bf0042" stroke="#bf0042"></path><path d="M5197.1 5569L5268.1 5069L4828.7 5019Z" fill="#031930" stroke="#031930"></path><path d="M4828.7 5019L5268.1 5069L5322.1 4432Z" fill="#00101c" stroke="#00101c"></path><path d="M2104.6 2910L2126.6 3509L2567.1 2906Z" fill="#bf0042" stroke="#bf0042"></path><path d="M2690.1 3948L2621.1 4562L3178.5 3989Z" fill="#db0000" stroke="#db0000"></path><path d="M6375.9 4041L6815.4 3495L6255.9 3452Z" fill="#681562" stroke="#681562"></path><path d="M2591.1 1501L2117.6 2006L2670.1 1956Z" fill="#031930" stroke="#031930"></path><path d="M2163.6 2560L1594.2 2437L2104.6 2910Z" fill="#a60054" stroke="#a60054"></path><path d="M5862.5 555L5342.1 436L5751.5 960Z" fill="#bf0042" stroke="#bf0042"></path><path d="M5751.5 960L5342.1 436L5208.1 1020Z" fill="#681562" stroke="#681562"></path><path d="M6815.4 3495L6953.4 2955L6304.9 3008Z" fill="#d1002a" stroke="#d1002a"></path><path d="M6953.4 2955L6960.4 2596L6304.9 3008Z" fill="#031930" stroke="#031930"></path><path d="M6960.4 2596L6840.4 1950L6393.9 2031Z" fill="#d1002a" stroke="#d1002a"></path><path d="M6410.9 1006L5862.5 555L5751.5 960Z" fill="#88005f" stroke="#88005f"></path><path d="M3752.9 571L3155.5 523L3616.9 954Z" fill="#481f5e" stroke="#481f5e"></path><path d="M3131.5 1031L2581.1 905L2591.1 1501Z" fill="#88005f" stroke="#88005f"></path><path d="M2591.1 1501L2062.6 1506L2117.6 2006Z" fill="#bf0042" stroke="#bf0042"></path><path d="M3688.9 0L3155.5 523L3752.9 571Z" fill="#bf0042" stroke="#bf0042"></path><path d="M2178.6 4539L2621.1 4562L2690.1 3948Z" fill="#bf0042" stroke="#bf0042"></path><path d="M5848.5 4999L6327.9 4555L5775.5 4404Z" fill="#00101c" stroke="#00101c"></path><path d="M6375.9 4041L6916.4 3925L6815.4 3495Z" fill="#db0000" stroke="#db0000"></path><path d="M6410.9 1006L5915.5 1558L6425.9 1546Z" fill="#2a2153" stroke="#2a2153"></path><path d="M6798.4 1571L6410.9 1006L6425.9 1546Z" fill="#d1002a" stroke="#d1002a"></path><path d="M7452.8 1981L6798.4 1571L6840.4 1950Z" fill="#031930" stroke="#031930"></path><path d="M6840.4 1950L6798.4 1571L6425.9 1546Z" fill="#bf0042" stroke="#bf0042"></path><path d="M2737.1 481L2581.1 905L3131.5 1031Z" fill="#481f5e" stroke="#481f5e"></path><path d="M5268.1 5069L5848.5 4999L5322.1 4432Z" fill="#00101c" stroke="#00101c"></path><path d="M3688.9 4910L4187.3 5430L4331.3 5092Z" fill="#d1002a" stroke="#d1002a"></path><path d="M4331.3 5092L4716.7 5475L4828.7 5019Z" fill="#031930" stroke="#031930"></path><path d="M5268.1 5069L5850.5 5582L5848.5 4999Z" fill="#2a2153" stroke="#2a2153"></path><path d="M3764.9 5557L4187.3 5430L3688.9 4910Z" fill="#481f5e" stroke="#481f5e"></path><path d="M2068.6 972L2062.6 1506L2591.1 1501Z" fill="#681562" stroke="#681562"></path><path d="M2117.6 2006L1594.2 2437L2163.6 2560Z" fill="#2a2153" stroke="#2a2153"></path><path d="M2126.6 3509L2051.6 3970L2690.1 3948Z" fill="#681562" stroke="#681562"></path><path d="M1548.2 3456L2051.6 3970L2126.6 3509Z" fill="#031930" stroke="#031930"></path><path d="M1548.2 3456L2126.6 3509L2104.6 2910Z" fill="#2a2153" stroke="#2a2153"></path><path d="M2613.1 4967L3095.5 5091L2621.1 4562Z" fill="#101e43" stroke="#101e43"></path><path d="M2621.1 4562L3095.5 5091L3272.5 4473Z" fill="#bf0042" stroke="#bf0042"></path><path d="M6909.4 4503L6916.4 3925L6375.9 4041Z" fill="#681562" stroke="#681562"></path><path d="M7483.8 3542L7446.8 2923L6953.4 2955Z" fill="#031930" stroke="#031930"></path><path d="M4187.3 5430L4716.7 5475L4331.3 5092Z" fill="#2a2153" stroke="#2a2153"></path><path d="M4744.7 0L4299.3 0L4697.7 459Z" fill="#031930" stroke="#031930"></path><path d="M4697.7 459L4299.3 0L4315.3 548Z" fill="#00101c" stroke="#00101c"></path><path d="M4744.7 0L4697.7 459L5342.1 436Z" fill="#a60054" stroke="#a60054"></path><path d="M5374.1 0L4744.7 0L5342.1 436Z" fill="#101e43" stroke="#101e43"></path><path d="M3122.5 0L2737.1 481L3155.5 523Z" fill="#88005f" stroke="#88005f"></path><path d="M3155.5 523L2737.1 481L3131.5 1031Z" fill="#2a2153" stroke="#2a2153"></path><path d="M2581.1 905L2068.6 972L2591.1 1501Z" fill="#00101c" stroke="#00101c"></path><path d="M4299.3 0L3688.9 0L3752.9 571Z" fill="#101e43" stroke="#101e43"></path><path d="M1637.2 2035L1594.2 2437L2117.6 2006Z" fill="#a60054" stroke="#a60054"></path><path d="M2178.6 4539L2613.1 4967L2621.1 4562Z" fill="#681562" stroke="#681562"></path><path d="M3095.5 5091L3764.9 5557L3688.9 4910Z" fill="#681562" stroke="#681562"></path><path d="M5744.5 0L5374.1 0L5342.1 436Z" fill="#bf0042" stroke="#bf0042"></path><path d="M5744.5 0L5342.1 436L5862.5 555Z" fill="#00101c" stroke="#00101c"></path><path d="M3120.5 5585L3764.9 5557L3095.5 5091Z" fill="#a60054" stroke="#a60054"></path><path d="M4187.3 5430L4260.3 6000L4716.7 5475Z" fill="#681562" stroke="#681562"></path><path d="M1544.2 4557L2178.6 4539L2051.6 3970Z" fill="#bf0042" stroke="#bf0042"></path><path d="M2051.6 3970L2178.6 4539L2690.1 3948Z" fill="#681562" stroke="#681562"></path><path d="M4695.7 6000L5197.1 5569L4716.7 5475Z" fill="#88005f" stroke="#88005f"></path><path d="M4716.7 5475L5197.1 5569L4828.7 5019Z" fill="#031930" stroke="#031930"></path><path d="M1658.2 1581L1637.2 2035L2117.6 2006Z" fill="#101e43" stroke="#101e43"></path><path d="M1658.2 1581L2117.6 2006L2062.6 1506Z" fill="#db0000" stroke="#db0000"></path><path d="M6914.4 977L6428.9 575L6410.9 1006Z" fill="#101e43" stroke="#101e43"></path><path d="M6410.9 1006L6428.9 575L5862.5 555Z" fill="#00101c" stroke="#00101c"></path><path d="M6380.9 5447L6400.9 4962L5848.5 4999Z" fill="#bf0042" stroke="#bf0042"></path><path d="M5848.5 4999L6400.9 4962L6327.9 4555Z" fill="#00101c" stroke="#00101c"></path><path d="M6327.9 4555L6909.4 4503L6375.9 4041Z" fill="#681562" stroke="#681562"></path><path d="M1110.8 2420L1531.2 2928L1594.2 2437Z" fill="#481f5e" stroke="#481f5e"></path><path d="M1594.2 2437L1531.2 2928L2104.6 2910Z" fill="#88005f" stroke="#88005f"></path><path d="M7446.8 2923L7402.8 2521L6960.4 2596Z" fill="#db0000" stroke="#db0000"></path><path d="M6960.4 2596L7402.8 2521L6840.4 1950Z" fill="#2a2153" stroke="#2a2153"></path><path d="M6798.4 1571L6914.4 977L6410.9 1006Z" fill="#00101c" stroke="#00101c"></path><path d="M7446.8 2923L6960.4 2596L6953.4 2955Z" fill="#031930" stroke="#031930"></path><path d="M7483.8 3542L6815.4 3495L6916.4 3925Z" fill="#d1002a" stroke="#d1002a"></path><path d="M7483.8 3542L6953.4 2955L6815.4 3495Z" fill="#00101c" stroke="#00101c"></path><path d="M2044.6 476L2068.6 972L2581.1 905Z" fill="#101e43" stroke="#101e43"></path><path d="M1531.2 2928L1548.2 3456L2104.6 2910Z" fill="#a60054" stroke="#a60054"></path><path d="M6400.9 4962L6909.4 4503L6327.9 4555Z" fill="#2a2153" stroke="#2a2153"></path><path d="M7453.8 1420L6914.4 977L6798.4 1571Z" fill="#481f5e" stroke="#481f5e"></path><path d="M6383.9 0L5862.5 555L6428.9 575Z" fill="#a60054" stroke="#a60054"></path><path d="M6383.9 0L5744.5 0L5862.5 555Z" fill="#031930" stroke="#031930"></path><path d="M1682.2 962L1658.2 1581L2062.6 1506Z" fill="#031930" stroke="#031930"></path><path d="M1131.8 1994L1110.8 2420L1594.2 2437Z" fill="#db0000" stroke="#db0000"></path><path d="M3688.9 0L3122.5 0L3155.5 523Z" fill="#681562" stroke="#681562"></path><path d="M2737.1 481L2044.6 476L2581.1 905Z" fill="#bf0042" stroke="#bf0042"></path><path d="M7848.2 2018L7452.8 1981L7402.8 2521Z" fill="#681562" stroke="#681562"></path><path d="M7402.8 2521L7452.8 1981L6840.4 1950Z" fill="#031930" stroke="#031930"></path><path d="M7486.8 4066L7483.8 3542L6916.4 3925Z" fill="#88005f" stroke="#88005f"></path><path d="M7446.8 2923L7888.2 2996L7402.8 2521Z" fill="#a60054" stroke="#a60054"></path><path d="M2658.1 5530L3095.5 5091L2613.1 4967Z" fill="#00101c" stroke="#00101c"></path><path d="M2658.1 5530L3120.5 5585L3095.5 5091Z" fill="#681562" stroke="#681562"></path><path d="M3764.9 5557L4260.3 6000L4187.3 5430Z" fill="#a60054" stroke="#a60054"></path><path d="M5197.1 5569L5850.5 5582L5268.1 5069Z" fill="#a60054" stroke="#a60054"></path><path d="M6400.9 4962L6839.4 5091L6909.4 4503Z" fill="#db0000" stroke="#db0000"></path><path d="M5237.1 6000L5850.5 5582L5197.1 5569Z" fill="#101e43" stroke="#101e43"></path><path d="M1592.2 4924L2142.6 4944L2178.6 4539Z" fill="#681562" stroke="#681562"></path><path d="M2178.6 4539L2142.6 4944L2613.1 4967Z" fill="#2a2153" stroke="#2a2153"></path><path d="M1548.2 3456L1514.2 4024L2051.6 3970Z" fill="#031930" stroke="#031930"></path><path d="M1085.8 3969L1514.2 4024L1548.2 3456Z" fill="#2a2153" stroke="#2a2153"></path><path d="M7360.8 499L6876.4 565L6914.4 977Z" fill="#031930" stroke="#031930"></path><path d="M6914.4 977L6876.4 565L6428.9 575Z" fill="#031930" stroke="#031930"></path><path d="M3735.9 6000L4260.3 6000L3764.9 5557Z" fill="#a60054" stroke="#a60054"></path><path d="M4260.3 6000L4695.7 6000L4716.7 5475Z" fill="#d1002a" stroke="#d1002a"></path><path d="M7452.8 1981L7453.8 1420L6798.4 1571Z" fill="#681562" stroke="#681562"></path><path d="M7844.2 1479L7453.8 1420L7452.8 1981Z" fill="#031930" stroke="#031930"></path><path d="M3122.5 0L2659.1 0L2737.1 481Z" fill="#a60054" stroke="#a60054"></path><path d="M2068.6 972L1682.2 962L2062.6 1506Z" fill="#481f5e" stroke="#481f5e"></path><path d="M7383.8 4584L7486.8 4066L6909.4 4503Z" fill="#101e43" stroke="#101e43"></path><path d="M6909.4 4503L7486.8 4066L6916.4 3925Z" fill="#88005f" stroke="#88005f"></path><path d="M6365.9 6000L6380.9 5447L5850.5 5582Z" fill="#481f5e" stroke="#481f5e"></path><path d="M5850.5 5582L6380.9 5447L5848.5 4999Z" fill="#d1002a" stroke="#d1002a"></path><path d="M2044.6 476L1682.2 962L2068.6 972Z" fill="#00101c" stroke="#00101c"></path><path d="M1131.8 1994L1594.2 2437L1637.2 2035Z" fill="#a60054" stroke="#a60054"></path><path d="M2040.6 5466L2658.1 5530L2613.1 4967Z" fill="#bf0042" stroke="#bf0042"></path><path d="M3183.5 6000L3735.9 6000L3764.9 5557Z" fill="#bf0042" stroke="#bf0042"></path><path d="M2659.1 0L2044.6 476L2737.1 481Z" fill="#a60054" stroke="#a60054"></path><path d="M3183.5 6000L3764.9 5557L3120.5 5585Z" fill="#00101c" stroke="#00101c"></path><path d="M6380.9 5447L6839.4 5091L6400.9 4962Z" fill="#bf0042" stroke="#bf0042"></path><path d="M4695.7 6000L5237.1 6000L5197.1 5569Z" fill="#db0000" stroke="#db0000"></path><path d="M6825.4 0L6383.9 0L6428.9 575Z" fill="#d1002a" stroke="#d1002a"></path><path d="M1131.8 1994L1637.2 2035L1658.2 1581Z" fill="#bf0042" stroke="#bf0042"></path><path d="M1531.2 2928L973.8 2910L1548.2 3456Z" fill="#a60054" stroke="#a60054"></path><path d="M983.8 1510L1131.8 1994L1658.2 1581Z" fill="#d1002a" stroke="#d1002a"></path><path d="M7925.2 3565L7888.2 2996L7483.8 3542Z" fill="#031930" stroke="#031930"></path><path d="M7483.8 3542L7888.2 2996L7446.8 2923Z" fill="#a60054" stroke="#a60054"></path><path d="M1514.2 4024L1544.2 4557L2051.6 3970Z" fill="#bf0042" stroke="#bf0042"></path><path d="M2142.6 4944L2040.6 5466L2613.1 4967Z" fill="#d1002a" stroke="#d1002a"></path><path d="M988.8 4546L1544.2 4557L1514.2 4024Z" fill="#101e43" stroke="#101e43"></path><path d="M6839.4 5091L7383.8 4584L6909.4 4503Z" fill="#00101c" stroke="#00101c"></path><path d="M7920.2 3910L7925.2 3565L7483.8 3542Z" fill="#d1002a" stroke="#d1002a"></path><path d="M8010.2 2488L7848.2 2018L7402.8 2521Z" fill="#bf0042" stroke="#bf0042"></path><path d="M2551.1 6000L3120.5 5585L2658.1 5530Z" fill="#681562" stroke="#681562"></path><path d="M2551.1 6000L3183.5 6000L3120.5 5585Z" fill="#bf0042" stroke="#bf0042"></path><path d="M586.4 2538L973.8 2910L1110.8 2420Z" fill="#681562" stroke="#681562"></path><path d="M1110.8 2420L973.8 2910L1531.2 2928Z" fill="#d1002a" stroke="#d1002a"></path><path d="M7453.8 1420L7461.8 929L6914.4 977Z" fill="#88005f" stroke="#88005f"></path><path d="M6876.4 565L6825.4 0L6428.9 575Z" fill="#481f5e" stroke="#481f5e"></path><path d="M7898.2 1089L7461.8 929L7453.8 1420Z" fill="#88005f" stroke="#88005f"></path><path d="M5237.1 6000L5853.5 6000L5850.5 5582Z" fill="#bf0042" stroke="#bf0042"></path><path d="M6380.9 5447L6804.4 5404L6839.4 5091Z" fill="#031930" stroke="#031930"></path><path d="M6846.4 6000L6804.4 5404L6380.9 5447Z" fill="#2a2153" stroke="#2a2153"></path><path d="M6839.4 5091L7399.8 5075L7383.8 4584Z" fill="#481f5e" stroke="#481f5e"></path><path d="M7888.2 2996L8010.2 2488L7402.8 2521Z" fill="#bf0042" stroke="#bf0042"></path><path d="M7920.2 3910L7483.8 3542L7486.8 4066Z" fill="#101e43" stroke="#101e43"></path><path d="M8558.6 2940L8462.6 2497L8010.2 2488Z" fill="#d1002a" stroke="#d1002a"></path><path d="M973.8 2910L993.8 3574L1548.2 3456Z" fill="#db0000" stroke="#db0000"></path><path d="M993.8 3574L1085.8 3969L1548.2 3456Z" fill="#031930" stroke="#031930"></path><path d="M2044.6 476L1633.2 526L1682.2 962Z" fill="#db0000" stroke="#db0000"></path><path d="M995.8 1082L983.8 1510L1658.2 1581Z" fill="#88005f" stroke="#88005f"></path><path d="M1540.2 0L1633.2 526L2044.6 476Z" fill="#2a2153" stroke="#2a2153"></path><path d="M1010.8 4966L1592.2 4924L1544.2 4557Z" fill="#681562" stroke="#681562"></path><path d="M1544.2 4557L1592.2 4924L2178.6 4539Z" fill="#88005f" stroke="#88005f"></path><path d="M7848.2 2018L7844.2 1479L7452.8 1981Z" fill="#2a2153" stroke="#2a2153"></path><path d="M8464.6 1550L7844.2 1479L7848.2 2018Z" fill="#db0000" stroke="#db0000"></path><path d="M2659.1 0L2116.6 0L2044.6 476Z" fill="#a60054" stroke="#a60054"></path><path d="M7360.8 499L6825.4 0L6876.4 565Z" fill="#101e43" stroke="#101e43"></path><path d="M7360.8 499L6914.4 977L7461.8 929Z" fill="#031930" stroke="#031930"></path><path d="M7853.2 4550L7486.8 4066L7383.8 4584Z" fill="#88005f" stroke="#88005f"></path><path d="M7853.2 4550L7920.2 3910L7486.8 4066Z" fill="#101e43" stroke="#101e43"></path><path d="M8558.6 2940L8010.2 2488L7888.2 2996Z" fill="#a60054" stroke="#a60054"></path><path d="M1592.2 4924L2040.6 5466L2142.6 4944Z" fill="#00101c" stroke="#00101c"></path><path d="M7981.2 594L7360.8 499L7461.8 929Z" fill="#88005f" stroke="#88005f"></path><path d="M995.8 1082L1658.2 1581L1682.2 962Z" fill="#bf0042" stroke="#bf0042"></path><path d="M553.4 2017L586.4 2538L1110.8 2420Z" fill="#681562" stroke="#681562"></path><path d="M7399.8 5422L7399.8 5075L6839.4 5091Z" fill="#101e43" stroke="#101e43"></path><path d="M7399.8 5422L6839.4 5091L6804.4 5404Z" fill="#481f5e" stroke="#481f5e"></path><path d="M5853.5 6000L6365.9 6000L5850.5 5582Z" fill="#2a2153" stroke="#2a2153"></path><path d="M2125.6 6000L2551.1 6000L2658.1 5530Z" fill="#bf0042" stroke="#bf0042"></path><path d="M8464.6 1550L7898.2 1089L7844.2 1479Z" fill="#681562" stroke="#681562"></path><path d="M7844.2 1479L7898.2 1089L7453.8 1420Z" fill="#00101c" stroke="#00101c"></path><path d="M7892.2 4948L7853.2 4550L7383.8 4584Z" fill="#00101c" stroke="#00101c"></path><path d="M1093.8 459L1682.2 962L1633.2 526Z" fill="#681562" stroke="#681562"></path><path d="M1093.8 459L995.8 1082L1682.2 962Z" fill="#a60054" stroke="#a60054"></path><path d="M553.4 2017L1131.8 1994L983.8 1510Z" fill="#031930" stroke="#031930"></path><path d="M553.4 2017L1110.8 2420L1131.8 1994Z" fill="#2a2153" stroke="#2a2153"></path><path d="M973.8 2910L591.4 3505L993.8 3574Z" fill="#481f5e" stroke="#481f5e"></path><path d="M620.4 3907L988.8 4546L1085.8 3969Z" fill="#db0000" stroke="#db0000"></path><path d="M1085.8 3969L988.8 4546L1514.2 4024Z" fill="#bf0042" stroke="#bf0042"></path><path d="M1549.2 5588L2125.6 6000L2040.6 5466Z" fill="#88005f" stroke="#88005f"></path><path d="M2040.6 5466L2125.6 6000L2658.1 5530Z" fill="#031930" stroke="#031930"></path><path d="M620.4 3907L1085.8 3969L993.8 3574Z" fill="#bf0042" stroke="#bf0042"></path><path d="M503.4 3069L591.4 3505L973.8 2910Z" fill="#88005f" stroke="#88005f"></path><path d="M6846.4 6000L7399.8 5422L6804.4 5404Z" fill="#88005f" stroke="#88005f"></path><path d="M7399.8 5075L7892.2 4948L7383.8 4584Z" fill="#bf0042" stroke="#bf0042"></path><path d="M586.4 2538L503.4 3069L973.8 2910Z" fill="#88005f" stroke="#88005f"></path><path d="M576.4 1502L553.4 2017L983.8 1510Z" fill="#db0000" stroke="#db0000"></path><path d="M586.4 2538L0 2949L503.4 3069Z" fill="#2a2153" stroke="#2a2153"></path><path d="M7989.2 0L7366.8 0L7360.8 499Z" fill="#481f5e" stroke="#481f5e"></path><path d="M7360.8 499L7366.8 0L6825.4 0Z" fill="#d1002a" stroke="#d1002a"></path><path d="M8558.6 2940L7888.2 2996L7925.2 3565Z" fill="#bf0042" stroke="#bf0042"></path><path d="M8010.2 2488L8494.6 1910L7848.2 2018Z" fill="#681562" stroke="#681562"></path><path d="M8558.6 2940L7925.2 3565L8550.6 3586Z" fill="#d1002a" stroke="#d1002a"></path><path d="M1549.2 5588L2040.6 5466L1592.2 4924Z" fill="#bf0042" stroke="#bf0042"></path><path d="M2116.6 0L1540.2 0L2044.6 476Z" fill="#88005f" stroke="#88005f"></path><path d="M0 4025L620.4 3907L591.4 3505Z" fill="#db0000" stroke="#db0000"></path><path d="M591.4 3505L620.4 3907L993.8 3574Z" fill="#a60054" stroke="#a60054"></path><path d="M6365.9 6000L6846.4 6000L6380.9 5447Z" fill="#88005f" stroke="#88005f"></path><path d="M7399.8 5422L7892.2 4948L7399.8 5075Z" fill="#681562" stroke="#681562"></path><path d="M8550.6 3586L7925.2 3565L8527.6 3922Z" fill="#db0000" stroke="#db0000"></path><path d="M7918.2 5570L7892.2 4948L7399.8 5422Z" fill="#88005f" stroke="#88005f"></path><path d="M1010.8 4966L1544.2 4557L988.8 4546Z" fill="#031930" stroke="#031930"></path><path d="M1010.8 4966L1549.2 5588L1592.2 4924Z" fill="#031930" stroke="#031930"></path><path d="M1540.2 0L1093.8 459L1633.2 526Z" fill="#681562" stroke="#681562"></path><path d="M995.8 1082L576.4 1502L983.8 1510Z" fill="#481f5e" stroke="#481f5e"></path><path d="M510.4 1089L576.4 1502L995.8 1082Z" fill="#00101c" stroke="#00101c"></path><path d="M0 2428L0 2949L586.4 2538Z" fill="#681562" stroke="#681562"></path><path d="M7925.2 3565L7920.2 3910L8527.6 3922Z" fill="#bf0042" stroke="#bf0042"></path><path d="M599.4 4522L1010.8 4966L988.8 4546Z" fill="#681562" stroke="#681562"></path><path d="M9000 1994L8494.6 1910L8462.6 2497Z" fill="#00101c" stroke="#00101c"></path><path d="M8462.6 2497L8494.6 1910L8010.2 2488Z" fill="#db0000" stroke="#db0000"></path><path d="M7898.2 1089L7981.2 594L7461.8 929Z" fill="#d1002a" stroke="#d1002a"></path><path d="M8428.6 1002L7981.2 594L7898.2 1089Z" fill="#00101c" stroke="#00101c"></path><path d="M8527.6 3922L7920.2 3910L8502.6 4500Z" fill="#d1002a" stroke="#d1002a"></path><path d="M8494.6 1910L8464.6 1550L7848.2 2018Z" fill="#db0000" stroke="#db0000"></path><path d="M8502.6 4500L7920.2 3910L7853.2 4550Z" fill="#bf0042" stroke="#bf0042"></path><path d="M620.4 3907L599.4 4522L988.8 4546Z" fill="#031930" stroke="#031930"></path><path d="M1113.8 6000L1496.2 6000L1549.2 5588Z" fill="#a60054" stroke="#a60054"></path><path d="M0 4025L599.4 4522L620.4 3907Z" fill="#681562" stroke="#681562"></path><path d="M532.4 427L510.4 1089L995.8 1082Z" fill="#481f5e" stroke="#481f5e"></path><path d="M0 2428L586.4 2538L553.4 2017Z" fill="#db0000" stroke="#db0000"></path><path d="M8464.6 1550L8428.6 1002L7898.2 1089Z" fill="#db0000" stroke="#db0000"></path><path d="M7981.2 594L7989.2 0L7360.8 499Z" fill="#a60054" stroke="#a60054"></path><path d="M8430.6 553L8428.6 1002L9000 575Z" fill="#031930" stroke="#031930"></path><path d="M6846.4 6000L7367.8 6000L7399.8 5422Z" fill="#a60054" stroke="#a60054"></path><path d="M7892.2 4948L8502.6 4500L7853.2 4550Z" fill="#2a2153" stroke="#2a2153"></path><path d="M8495.6 5029L8502.6 4500L7892.2 4948Z" fill="#bf0042" stroke="#bf0042"></path><path d="M9000 3090L8558.6 2940L8550.6 3586Z" fill="#481f5e" stroke="#481f5e"></path><path d="M1549.2 5588L1496.2 6000L2125.6 6000Z" fill="#db0000" stroke="#db0000"></path><path d="M1033.8 5564L1549.2 5588L1010.8 4966Z" fill="#00101c" stroke="#00101c"></path><path d="M609.4 5073L1033.8 5564L1010.8 4966Z" fill="#031930" stroke="#031930"></path><path d="M1540.2 0L971.8 0L1093.8 459Z" fill="#88005f" stroke="#88005f"></path><path d="M1093.8 459L532.4 427L995.8 1082Z" fill="#bf0042" stroke="#bf0042"></path><path d="M7367.8 6000L7918.2 5570L7399.8 5422Z" fill="#481f5e" stroke="#481f5e"></path><path d="M8430.6 553L7989.2 0L7981.2 594Z" fill="#a60054" stroke="#a60054"></path><path d="M0 2428L553.4 2017L0 1940Z" fill="#681562" stroke="#681562"></path><path d="M503.4 3069L0 3429L591.4 3505Z" fill="#101e43" stroke="#101e43"></path><path d="M0 1940L553.4 2017L0 1560Z" fill="#2a2153" stroke="#2a2153"></path><path d="M0 5054L609.4 5073L599.4 4522Z" fill="#a60054" stroke="#a60054"></path><path d="M599.4 4522L609.4 5073L1010.8 4966Z" fill="#101e43" stroke="#101e43"></path><path d="M0 2949L0 3429L503.4 3069Z" fill="#d1002a" stroke="#d1002a"></path><path d="M9000 1086L8428.6 1002L8464.6 1550Z" fill="#d1002a" stroke="#d1002a"></path><path d="M8428.6 1002L8430.6 553L7981.2 594Z" fill="#681562" stroke="#681562"></path><path d="M9000 1524L8464.6 1550L8494.6 1910Z" fill="#101e43" stroke="#101e43"></path><path d="M9000 3090L9000 2581L8558.6 2940Z" fill="#a60054" stroke="#a60054"></path><path d="M8558.6 2940L9000 2581L8462.6 2497Z" fill="#bf0042" stroke="#bf0042"></path><path d="M9000 3090L8550.6 3586L9000 3463Z" fill="#00101c" stroke="#00101c"></path><path d="M0 1560L553.4 2017L576.4 1502Z" fill="#481f5e" stroke="#481f5e"></path><path d="M0 1560L576.4 1502L510.4 1089Z" fill="#101e43" stroke="#101e43"></path><path d="M9000 3463L8550.6 3586L9000 3937Z" fill="#2a2153" stroke="#2a2153"></path><path d="M971.8 0L532.4 427L1093.8 459Z" fill="#a60054" stroke="#a60054"></path><path d="M9000 3937L8550.6 3586L8527.6 3922Z" fill="#681562" stroke="#681562"></path><path d="M9000 2581L9000 1994L8462.6 2497Z" fill="#481f5e" stroke="#481f5e"></path><path d="M0 1050L0 1560L510.4 1089Z" fill="#88005f" stroke="#88005f"></path><path d="M8408.6 5528L8495.6 5029L7892.2 4948Z" fill="#d1002a" stroke="#d1002a"></path><path d="M8502.6 4500L9000 3937L8527.6 3922Z" fill="#88005f" stroke="#88005f"></path><path d="M0 3429L0 4025L591.4 3505Z" fill="#681562" stroke="#681562"></path><path d="M521.4 5459L1033.8 5564L609.4 5073Z" fill="#bf0042" stroke="#bf0042"></path><path d="M489.4 6000L1113.8 6000L1033.8 5564Z" fill="#00101c" stroke="#00101c"></path><path d="M1033.8 5564L1113.8 6000L1549.2 5588Z" fill="#db0000" stroke="#db0000"></path><path d="M9000 4524L9000 3937L8502.6 4500Z" fill="#031930" stroke="#031930"></path><path d="M9000 1994L9000 1524L8494.6 1910Z" fill="#a60054" stroke="#a60054"></path><path d="M7918.2 5570L8408.6 5528L7892.2 4948Z" fill="#2a2153" stroke="#2a2153"></path><path d="M7367.8 6000L7953.2 6000L7918.2 5570Z" fill="#00101c" stroke="#00101c"></path><path d="M0 542L0 1050L510.4 1089Z" fill="#88005f" stroke="#88005f"></path><path d="M0 5054L521.4 5459L609.4 5073Z" fill="#db0000" stroke="#db0000"></path><path d="M0 4025L0 4477L599.4 4522Z" fill="#00101c" stroke="#00101c"></path><path d="M7953.2 6000L8408.6 5528L7918.2 5570Z" fill="#481f5e" stroke="#481f5e"></path><path d="M9000 4927L9000 4524L8502.6 4500Z" fill="#2a2153" stroke="#2a2153"></path><path d="M9000 1524L9000 1086L8464.6 1550Z" fill="#481f5e" stroke="#481f5e"></path><path d="M8430.6 553L8512.6 0L7989.2 0Z" fill="#bf0042" stroke="#bf0042"></path><path d="M971.8 0L482.4 0L532.4 427Z" fill="#a60054" stroke="#a60054"></path><path d="M532.4 427L0 542L510.4 1089Z" fill="#101e43" stroke="#101e43"></path><path d="M9000 4927L8502.6 4500L8495.6 5029Z" fill="#031930" stroke="#031930"></path><path d="M9000 575L8512.6 0L8430.6 553Z" fill="#a60054" stroke="#a60054"></path><path d="M0 0L0 542L532.4 427Z" fill="#031930" stroke="#031930"></path><path d="M9000 1086L9000 575L8428.6 1002Z" fill="#db0000" stroke="#db0000"></path><path d="M0 4477L0 5054L599.4 4522Z" fill="#d1002a" stroke="#d1002a"></path><path d="M521.4 5459L489.4 6000L1033.8 5564Z" fill="#031930" stroke="#031930"></path><path d="M9000 5466L8495.6 5029L8408.6 5528Z" fill="#00101c" stroke="#00101c"></path><path d="M9000 5466L9000 4927L8495.6 5029Z" fill="#a60054" stroke="#a60054"></path><path d="M0 5536L489.4 6000L521.4 5459Z" fill="#db0000" stroke="#db0000"></path><path d="M7953.2 6000L8511.6 6000L8408.6 5528Z" fill="#00101c" stroke="#00101c"></path><path d="M482.4 0L0 0L532.4 427Z" fill="#88005f" stroke="#88005f"></path><path d="M0 5054L0 5536L521.4 5459Z" fill="#2a2153" stroke="#2a2153"></path><path d="M8511.6 6000L9000 5466L8408.6 5528Z" fill="#a60054" stroke="#a60054"></path><path d="M9000 575L9000 0L8512.6 0Z" fill="#2a2153" stroke="#2a2153"></path><path d="M0 5536L0 6000L489.4 6000Z" fill="#db0000" stroke="#db0000"></path><path d="M8511.6 6000L9000 6000L9000 5466Z" fill="#481f5e" stroke="#481f5e"></path></g></svg>